# xmcd
#
# Track frame offsets:
#	150
#	21783
#	37229
#	51972
#	71404
#	86259
#	99596
#	116183
#	135458
#	156728
#	175300
#	207736
#	222659
#	237480
#	251935
#	269921
#
# Disc length: 3828 seconds
#
# Revision: 1
# Processed by: cddbd v1.5.1PL0 Copyright (c) Steve Scherf et al.
# Submitted via: audiograbber 1.83.01
#
DISCID=080ef210
DTITLE=Various Artist - blues from the hub
DYEAR=2001
DGENRE=Blues
TTITLE0=Mighty Sam McClain - Thank You
TTITLE1=Racky Thomas Band, The - Sweet Dough Baker
TTITLE2=Sugar Ray and Little Anthony - Girl From Idaho
TTITLE3=J Place - Juke, Jive and Grind
TTITLE4=Love Dogs, The - All She Wants To Do Is Rock
TTITLE5=Johnny Hoy and the Bluefish - Throw Down Your Hammer
TTITLE6=Mission of Blues - Blood Red Nails
TTITLE7=Rampage Trio, The - True Love
TTITLE8=Woodburn - Arena Band, The - Honey I Need Some Love
TTITLE9=Ricky "King" Russell - Sad Day
TTITLE10=Sky Blues, The - In My Dreams
TTITLE11=Two Bones and A Pick - Para Jose
TTITLE12=Paul Rishell and Annie Raines - I Believe I'll Dust My Broom
TTITLE13=Vykki Vox - Never Enough
TTITLE14=Porch Rockers, The - Hear That Whistle
TTITLE15=Fatwall Jack - Hey Jay
EXTD=From the Boston Blues Society
EXTT0=
EXTT1=
EXTT2=
EXTT3=
EXTT4=
EXTT5=
EXTT6=
EXTT7=
EXTT8=
EXTT9=
EXTT10=
EXTT11=
EXTT12=
EXTT13=
EXTT14=
EXTT15=
PLAYORDER=
